<svg xmlns="http://www.w3.org/2000/svg" width="300" height="405" viewBox="0 0 300 405" fill="none" role="img" aria-labelledby="descId">
        <title id="titleId"/>
        <desc id="descId"/>
        <style>
          .header {
            font: 600 18px 'Segoe UI', Ubuntu, Sans-Serif;
            fill: #14b8a6;
            animation: fadeInAnimation 0.8s ease-in-out forwards;
          }
          @supports(-moz-appearance: auto) {
            /* Selector detects Firefox */
            .header { font-size: 15.5px; }
          }
          
    @keyframes slideInAnimation {
      from {
        width: 0;
      }
      to {
        width: calc(100%-100px);
      }
    }
    @keyframes growWidthAnimation {
      from {
        width: 0;
      }
      to {
        width: 100%;
      }
    }
    .stat {
      font: 600 14px 'Segoe UI', Ubuntu, "Helvetica Neue", Sans-Serif; fill: #ffffff;
    }
    @supports(-moz-appearance: auto) {
      /* Selector detects Firefox */
      .stat { font-size:12px; }
    }
    .bold { font-weight: 700 }
    .lang-name {
      font: 400 11px "Segoe UI", Ubuntu, Sans-Serif;
      fill: #ffffff;
    }
    .stagger {
      opacity: 0;
      animation: fadeInAnimation 0.3s ease-in-out forwards;
    }
    #rect-mask rect{
      animation: slideInAnimation 1s ease-in-out forwards;
    }
    .lang-progress{
      animation: growWidthAnimation 0.6s ease-in-out forwards;
    }
    

          
    /* Animations */
    @keyframes scaleInAnimation {
      from {
        transform: translate(-5px, 5px) scale(0);
      }
      to {
        transform: translate(-5px, 5px) scale(1);
      }
    }
    @keyframes fadeInAnimation {
      from {
        opacity: 0;
      }
      to {
        opacity: 1;
      }
    }
  
          
        </style>

        

        <rect data-testid="card-bg" x="0.5" y="0.5" rx="4.5" height="99%" stroke="#e4e2e2" width="299" fill="#0f172a" stroke-opacity="0"/>

        
      <g data-testid="card-title" transform="translate(25, 35)">
        <g transform="translate(0, 0)">
      <text x="0" y="0" class="header" data-testid="header">Top Languages</text>
    </g>
      </g>
    

        <g data-testid="main-card-body" transform="translate(0, 55)">
          
    <svg data-testid="lang-items" x="25">
      <g transform="translate(0, 0)">
    <g class="stagger" style="animation-delay: 450ms">
      <text data-testid="lang-name" x="2" y="15" class="lang-name">Java</text>
      <text x="215" y="34" class="lang-name">43.96%</text>
      
    <svg width="205" x="0" y="25">
      <rect rx="5" ry="5" x="0" y="0" width="205" height="8" fill="#ddd"/>
      <svg data-testid="lang-progress" width="43.96%">
        <rect height="8" fill="#b07219" rx="5" ry="5" x="0" y="0" class="lang-progress" style="animation-delay: 750ms;"/>
      </svg>
    </svg>
  
    </g>
  </g><g transform="translate(0, 40)">
    <g class="stagger" style="animation-delay: 600ms">
      <text data-testid="lang-name" x="2" y="15" class="lang-name">TypeScript</text>
      <text x="215" y="34" class="lang-name">24.49%</text>
      
    <svg width="205" x="0" y="25">
      <rect rx="5" ry="5" x="0" y="0" width="205" height="8" fill="#ddd"/>
      <svg data-testid="lang-progress" width="24.49%">
        <rect height="8" fill="#3178c6" rx="5" ry="5" x="0" y="0" class="lang-progress" style="animation-delay: 900ms;"/>
      </svg>
    </svg>
  
    </g>
  </g><g transform="translate(0, 80)">
    <g class="stagger" style="animation-delay: 750ms">
      <text data-testid="lang-name" x="2" y="15" class="lang-name">Vue</text>
      <text x="215" y="34" class="lang-name">15.42%</text>
      
    <svg width="205" x="0" y="25">
      <rect rx="5" ry="5" x="0" y="0" width="205" height="8" fill="#ddd"/>
      <svg data-testid="lang-progress" width="15.42%">
        <rect height="8" fill="#41b883" rx="5" ry="5" x="0" y="0" class="lang-progress" style="animation-delay: 1050ms;"/>
      </svg>
    </svg>
  
    </g>
  </g><g transform="translate(0, 120)">
    <g class="stagger" style="animation-delay: 900ms">
      <text data-testid="lang-name" x="2" y="15" class="lang-name">HTML</text>
      <text x="215" y="34" class="lang-name">12.37%</text>
      
    <svg width="205" x="0" y="25">
      <rect rx="5" ry="5" x="0" y="0" width="205" height="8" fill="#ddd"/>
      <svg data-testid="lang-progress" width="12.37%">
        <rect height="8" fill="#e34c26" rx="5" ry="5" x="0" y="0" class="lang-progress" style="animation-delay: 1200ms;"/>
      </svg>
    </svg>
  
    </g>
  </g><g transform="translate(0, 160)">
    <g class="stagger" style="animation-delay: 1050ms">
      <text data-testid="lang-name" x="2" y="15" class="lang-name">JavaScript</text>
      <text x="215" y="34" class="lang-name">2.29%</text>
      
    <svg width="205" x="0" y="25">
      <rect rx="5" ry="5" x="0" y="0" width="205" height="8" fill="#ddd"/>
      <svg data-testid="lang-progress" width="2.29%">
        <rect height="8" fill="#f1e05a" rx="5" ry="5" x="0" y="0" class="lang-progress" style="animation-delay: 1350ms;"/>
      </svg>
    </svg>
  
    </g>
  </g><g transform="translate(0, 200)">
    <g class="stagger" style="animation-delay: 1200ms">
      <text data-testid="lang-name" x="2" y="15" class="lang-name">CSS</text>
      <text x="215" y="34" class="lang-name">1.41%</text>
      
    <svg width="205" x="0" y="25">
      <rect rx="5" ry="5" x="0" y="0" width="205" height="8" fill="#ddd"/>
      <svg data-testid="lang-progress" width="2%">
        <rect height="8" fill="#563d7c" rx="5" ry="5" x="0" y="0" class="lang-progress" style="animation-delay: 1500ms;"/>
      </svg>
    </svg>
  
    </g>
  </g><g transform="translate(0, 240)">
    <g class="stagger" style="animation-delay: 1350ms">
      <text data-testid="lang-name" x="2" y="15" class="lang-name">Shell</text>
      <text x="215" y="34" class="lang-name">0.05%</text>
      
    <svg width="205" x="0" y="25">
      <rect rx="5" ry="5" x="0" y="0" width="205" height="8" fill="#ddd"/>
      <svg data-testid="lang-progress" width="2%">
        <rect height="8" fill="#89e051" rx="5" ry="5" x="0" y="0" class="lang-progress" style="animation-delay: 1650ms;"/>
      </svg>
    </svg>
  
    </g>
  </g><g transform="translate(0, 280)">
    <g class="stagger" style="animation-delay: 1500ms">
      <text data-testid="lang-name" x="2" y="15" class="lang-name">Procfile</text>
      <text x="215" y="34" class="lang-name">0.02%</text>
      
    <svg width="205" x="0" y="25">
      <rect rx="5" ry="5" x="0" y="0" width="205" height="8" fill="#ddd"/>
      <svg data-testid="lang-progress" width="2%">
        <rect height="8" fill="#3B2F63" rx="5" ry="5" x="0" y="0" class="lang-progress" style="animation-delay: 1800ms;"/>
      </svg>
    </svg>
  
    </g>
  </g>
    </svg>
  
        </g>
      </svg>
